{"title":"Ted 2 2015 TS x264 MenaceIISociety","uid":12107233,"size":1257270302,"categoryP":"video","categoryS":"movies","magnet":"?xt=urn:btih:15da673ed196ef98aba066b28b38e2e40b73b69b&amp;dn=Ted+2+2015+TS+x264+MenaceIISociety&amp;tr=udp%3A%2F%2Ftracker.openbittorrent.com%3A80&amp;tr=udp%3A%2F%2Fopen.demonii.com%3A1337&amp;tr=udp%3A%2F%2Ftracker.coppersurfer.tk%3A6969&amp;tr=udp%3A%2F%2Fexodus.desync.com%3A6969","seeders":8,"leechers":0,"uploader":"SS132203","files":4,"time":1436473640,"description":"Ted 2 2015 TS x264 MenaceIISociety\n &lt;a href=&quot;\nhttp://imgsparrow.co/image/0a&quot; rel=&quot;nofollow&quot; target=&quot;_NEW&quot;&gt;\nhttp://imgsparrow.co/image/0a&lt;/a&gt;\n &lt;a href=&quot;\nhttp://imgsparrow.co/image/9b&quot; rel=&quot;nofollow&quot; target=&quot;_NEW&quot;&gt;\nhttp://imgsparrow.co/image/9b&lt;/a&gt;\n\nInfo : - \n\nTed.2.2015.TS.x264-MenaceIISociety\n &lt;a href=&quot;\nhttp://www.imdb.com/title/tt2637276/&quot; rel=&quot;nofollow&quot; target=&quot;_NEW&quot;&gt;\nhttp://www.imdb.com/title/tt2637276/&lt;/a&gt;\nSource: CRiMiNAL / CM8 [THANKS]\n\nNOTES: Source was way too blue, tryed to correct that better, messed with rgb, gain, coef, sat, cont, white balance, gamma, hue, there is a tad bit of yellow still in parts but not much, and the colors are more realistic now, its complete and nice line audio from cm8 too thankx  anyways im off to watch this now, enjoy\n\nGeneral\nComplete name: Ted.2.2015.TS.x264-MenaceIISociety.mp4\nFormat: MPEG-4\nFormat profile: Base Media\nCodec ID: isom\nFile size: 1.15 GiB\nDuration: 1h 48mn\nOverall bit rate mode: Variable\nOverall bit rate: 1 519 Kbps\nEncoded date: UTC 2015-07-06 20:23:10\nTagged date: UTC 2015-07-06 20:23:10\n\nVideo\nID: 1\nFormat: AVC\nFormat/Info: Advanced Video Codec\nFormat profile: &lt;a class=&quot;__cf_email__&quot; href=&quot;/cdn-cgi/l/email-protection&quot; data-cfemail=&quot;96defff1fed6daa2b8a7&quot;&gt;[email&amp;#160;protected]&lt;/a&gt;&lt;script data-cfhash='f9e31' type=&quot;text/javascript&quot;&gt;\n/* &lt;![CDATA[ */!function(){try{var t=&quot;currentScript&quot;in document?document.currentScript:function(){for(var t=document.getElementsByTagName(&quot;script&quot;),e=t.length;e--;)if(t[e].getAttribute(&quot;data-cfhash&quot;))return t[e]}();if(t&amp;&amp;t.previousSibling){var e,r,n,i,c=t.previousSibling,a=c.getAttribute(&quot;data-cfemail&quot;);if(a){for(e=&quot;&quot;,r=parseInt(a.substr(0,2),16),n=2;a.length-n;n+=2)i=parseInt(a.substr(n,2),16)^r,e+=String.fromCharCode(i);e=document.createTextNode(e),c.parentNode.replaceChild(e,c)}t.parentNode.removeChild(t);}}catch(u){}}()/* ]]&gt; */&lt;/script&gt;\nFormat settings, CABAC: Yes\nFormat settings, ReFrames: 3 frames\nCodec ID: avc1\nCodec ID/Info: Advanced Video Coding\nDuration: 1h 48mn\nBit rate mode: Variable\nBit rate: 1 420 Kbps\nMaximum bit rate: 40.0 Mbps\nWidth: 720 pixels\nHeight: 288 pixels\nDisplay aspect ratio: 2.500\nFrame rate mode: Constant\nFrame rate: 25.000 fps\nColor space: YUV\nChroma subsampling: 4:2:0\nBit depth: 8 bits\nScan type: Progressive\nBits/(Pixel*Frame): 0.274\nStream size: 1.08 GiB (93%)\nWriting library: x264 core 146 r2538 121396c\nEncoding settings: cabac=1 / ref=4 / deblock=1:-1:-1 / analyse=0x3:0x113 / me=umh / subme=9 / psy=1 / psy_rd=1.00:0.15 / mixed_ref=1 / me_range=18 / chroma_me=1 / trellis=2 / 8x8dct=1 / cqm=0 / deadzone=21,11 / fast_pskip=0 / chroma_qp_offset=-3 / threads=12 / lookahead_threads=1 / sliced_threads=0 / slices=4 / nr=0 / decimate=1 / interlaced=0 / bluray_compat=0 / constrained_intra=0 / bframes=3 / b_pyramid=1 / b_adapt=2 / b_bias=0 / direct=1 / weightb=1 / open_gop=0 / weightp=0 / keyint=24 / keyint_min=2 / scenecut=40 / intra_refresh=0 / rc_lookahead=24 / rc=2pass / mbtree=1 / bitrate=1420 / ratetol=1.0 / qcomp=0.60 / qpmin=10 / qpmax=51 / qpstep=4 / cplxblur=20.0 / qblur=0.5 / vbv_maxrate=40000 / vbv_bufsize=30000 / nal_hrd=vbr / filler=0 / ip_ratio=1.40 / aq=1:1.00\nEncoded date: UTC 2015-07-06 20:23:10\nTagged date: UTC 2015-07-06 20:25:10\nColor range: Full\nColor primaries: BT.709\nTransfer characteristics: BT.709\nMatrix coefficients: BT.709\n\nAudio\nID: 2\nFormat: AAC\nFormat/Info: Advanced Audio Codec\nFormat profile: LC\nCodec ID: 40\nDuration: 1h 48mn\nBit rate mode: Variable\nBit rate: 96.0 Kbps\nMaximum bit rate: 126 Kbps\nChannel(s): 2 channels\nChannel positions: Front: L R\nSampling rate: 48.0 KHz\nCompression mode: Lossy\nStream size: 73.8 MiB (6%)\nEncoded date: UTC 2015-07-06 18:33:28\nTagged date: UTC 2015-07-06 20:25:10 \n\nScreens : - \n &lt;a href=&quot;\nhttp://imgsparrow.co/image/0f&quot; rel=&quot;nofollow&quot; target=&quot;_NEW&quot;&gt;\nhttp://imgsparrow.co/image/0f&lt;/a&gt; &lt;a href=&quot;\nhttp://imgsparrow.co/image/0I&quot; rel=&quot;nofollow&quot; target=&quot;_NEW&quot;&gt;\nhttp://imgsparrow.co/image/0I&lt;/a&gt; &lt;a href=&quot;\nhttp://imgsparrow.co/image/0P&quot; rel=&quot;nofollow&quot; target=&quot;_NEW&quot;&gt;\nhttp://imgsparrow.co/image/0P&lt;/a&gt; &lt;a href=&quot;\nhttp://imgsparrow.co/image/0W&quot; rel=&quot;nofollow&quot; target=&quot;_NEW&quot;&gt;\nhttp://imgsparrow.co/image/0W&lt;/a&gt; &lt;a href=&quot;\nhttp://imgsparrow.co/image/0X&quot; rel=&quot;nofollow&quot; target=&quot;_NEW&quot;&gt;\nhttp://imgsparrow.co/image/0X&lt;/a&gt; &lt;a href=&quot;\nhttp://imgsparrow.co/image/0Y&quot; rel=&quot;nofollow&quot; target=&quot;_NEW&quot;&gt;\nhttp://imgsparrow.co/image/0Y&lt;/a&gt; &lt;a href=&quot;\nhttp://imgsparrow.co/image/0c&quot; rel=&quot;nofollow&quot; target=&quot;_NEW&quot;&gt;\nhttp://imgsparrow.co/image/0c&lt;/a&gt; &lt;a href=&quot;\nhttp://imgsparrow.co/image/0d&quot; rel=&quot;nofollow&quot; target=&quot;_NEW&quot;&gt;\nhttp://imgsparrow.co/image/0d&lt;/a&gt; &lt;a href=&quot;\nhttp://imgsparrow.co/image/0o&quot; rel=&quot;nofollow&quot; target=&quot;_NEW&quot;&gt;\nhttp://imgsparrow.co/image/0o&lt;/a&gt; &lt;a href=&quot;\nhttp://imgsparrow.co/image/0M&quot; rel=&quot;nofollow&quot; target=&quot;_NEW&quot;&gt;\nhttp://imgsparrow.co/image/0M&lt;/a&gt;\n &lt;a href=&quot;\nhttp://imgsparrow.co/image/N2&quot; rel=&quot;nofollow&quot; target=&quot;_NEW&quot;&gt;\nhttp://imgsparrow.co/image/N2&lt;/a&gt;","torrent":{"xt":"urn:btih:15da673ed196ef98aba066b28b38e2e40b73b69b","amp;dn":"Ted+2+2015+TS+x264+MenaceIISociety","amp;tr":["udp%3A%2F%2Ftracker.openbittorrent.com%3A80","udp%3A%2F%2Fopen.demonii.com%3A1337","udp%3A%2F%2Ftracker.coppersurfer.tk%3A6969","udp%3A%2F%2Fexodus.desync.com%3A6969"],"infoHash":"15da673ed196ef98aba066b28b38e2e40b73b69b","infoHashBuffer":{"type":"Buffer","data":[21,218,103,62,209,150,239,152,171,160,102,178,139,56,226,228,11,115,182,155]},"announce":[],"urlList":[]}}